<?xml version="1.0" encoding="UTF-8"?>
<svg width="544px" height="101px" viewBox="0 0 544 101" version="1.1" xmlns="http://www.w3.org/2000/svg" xmlns:xlink="http://www.w3.org/1999/xlink">
    <!-- Generator: Sketch 52.6 (67491) - http://www.bohemiancoding.com/sketch -->
    <title>logo</title>
    <desc>Created with Sketch.</desc>
    <g id="Page-1" stroke="none" stroke-width="1" fill="none" fill-rule="evenodd">
        <g id="PrivacyMonitor_LOGO-by-osano" transform="translate(-124.000000, -345.000000)">
            <g id="logo" transform="translate(124.000000, 345.000000)">
                <path d="M80.981,23.8584 L53.538,3.9834 C50.589,1.8494 46.689,0.8274 42.782,0.8964 C38.892,0.9694 34.949,2.1214 31.895,4.3354 L5.42,23.5074 C3.756,24.7144 2.348,26.2444 1.437,28.0184 C0.591,29.6584 0.177,31.4884 0.365,33.4424 L0.365,64.7194 C0.199,66.4554 0.513,68.1904 1.313,69.8204 C2.085,71.3764 3.291,72.8064 4.938,73.9984 L7.852,76.1074 L11.754,73.2864 L33.204,57.9704 L39.721,62.6884 C40.622,63.3434 41.818,63.6554 43.014,63.6354 C44.204,63.6114 45.409,63.2604 46.344,62.5804 L54.453,56.7114 C54.963,56.3414 55.393,55.8764 55.673,55.3304 C55.934,54.8284 56.058,54.2684 56,53.6704 L56,44.0964 C56.055,43.5644 55.957,43.0294 55.71,42.5314 C55.475,42.0534 55.104,41.6184 54.6,41.2514 L46.199,35.1654 C45.295,34.5134 44.1,34.1984 42.903,34.2204 C41.713,34.2424 40.506,34.5964 39.569,35.2734 C31.22,41.3204 22.891,47.3904 14.556,53.4594 L14.556,38.5994 C14.429,37.2984 14.706,36.0774 15.271,34.9824 C15.878,33.8004 16.819,32.7784 17.929,31.9764 L35.58,19.1914 C37.62,17.7134 40.248,16.9444 42.84,16.8974 C45.445,16.8524 48.047,17.5334 50.015,18.9564 L68.313,32.2094 C69.412,33.0064 70.217,33.9634 70.728,35.0014 C71.262,36.0834 71.473,37.2474 71.361,38.4054 L71.361,59.2544 C71.49,60.5594 71.216,61.7804 70.652,62.8734 L70.65,62.8694 C70.041,64.0564 69.099,65.0734 67.99,65.8794 L50.336,78.6624 C48.299,80.1374 45.67,80.9094 43.078,80.9564 C40.472,81.0034 37.871,80.3204 35.905,78.8984 L32.365,76.3344 L20.121,84.9944 L32.379,93.8764 C35.33,96.0084 39.227,97.0344 43.137,96.9604 C47.025,96.8894 50.967,95.7364 54.023,93.5254 L80.497,74.3524 C82.164,73.1444 83.573,71.6144 84.486,69.8394 L84.488,69.8394 C85.332,68.2004 85.746,66.3734 85.553,64.4144 L85.553,33.1514 C85.722,31.4114 85.406,29.6684 84.605,28.0394 C83.837,26.4834 82.627,25.0534 80.981,23.8584" id="Fill-1" fill="#00C7FF"></path>
                <path d="M532.2539,31.1938 L522.3689,31.1938 L522.3689,65.7268 L532.2539,65.7268 L532.2539,49.1028 C532.2649,47.1448 532.7259,45.4538 533.6459,44.0318 C534.5659,42.6198 535.8809,41.5608 537.5819,40.8648 C539.2829,40.1588 541.3159,39.9128 543.6799,40.1158 L543.6799,30.8088 C541.1019,30.8518 538.8559,31.4298 536.9299,32.5518 C535.0039,33.6758 533.4529,35.2918 532.2539,37.4208 L532.2539,31.1938 Z" id="Fill-3" fill="#174D73"></path>
                <path d="M500.5342,30.8735 C497.7532,30.8835 495.2172,31.3005 492.9502,32.1355 C490.6812,32.9585 488.7342,34.1465 487.0972,35.6975 C485.4612,37.2385 484.1992,39.0885 483.3212,41.2395 C482.4432,43.4005 481.9952,45.8075 481.9842,48.4605 C481.9952,51.1025 482.4432,53.4985 483.3212,55.6605 C484.1992,57.8215 485.4612,59.6715 487.0972,61.2335 C488.7342,62.7955 490.6812,63.9945 492.9502,64.8385 C495.2172,65.6725 497.7532,66.1015 500.5342,66.1125 C503.3052,66.1015 505.8192,65.6725 508.0762,64.8385 C510.3442,63.9945 512.2922,62.7955 513.9182,61.2335 C515.5552,59.6715 516.8062,57.8215 517.6832,55.6605 C518.5602,53.4985 519.0102,51.1025 519.0202,48.4605 C519.0102,45.8075 518.5602,43.4005 517.6832,41.2395 C516.8062,39.0885 515.5552,37.2385 513.9182,35.6975 C512.2922,34.1465 510.3442,32.9585 508.0762,32.1355 C505.8192,31.3005 503.3052,30.8835 500.5342,30.8735 M500.5342,39.0885 C502.2352,39.0995 503.7332,39.5065 505.0162,40.2985 C506.3002,41.0895 507.3062,42.1905 508.0332,43.6145 C508.7622,45.0375 509.1252,46.6955 509.1362,48.5885 C509.1252,50.4825 508.7622,52.1405 508.0332,53.5635 C507.3062,54.9855 506.3002,56.0875 505.0162,56.8795 C503.7332,57.6705 502.2352,58.0785 500.5342,58.0885 C498.8122,58.0785 497.3042,57.6705 496.0202,56.8795 C494.7362,56.0875 493.7412,54.9855 493.0242,53.5635 C492.3072,52.1405 491.9432,50.4825 491.9332,48.5885 C491.9432,46.6955 492.3072,45.0375 493.0242,43.6145 C493.7412,42.1905 494.7362,41.0895 496.0202,40.2985 C497.3042,39.5065 498.8122,39.0995 500.5342,39.0885" id="Fill-5" fill="#174D73"></path>
                <path d="M478.4238,56.5488 C477.5268,56.9648 476.6918,57.2858 475.9208,57.5008 C475.1508,57.7248 474.4448,57.8318 473.8028,57.8318 C472.7338,57.8748 471.9208,57.5858 471.3428,56.9548 C470.7648,56.3228 470.4768,55.2858 470.4648,53.8528 L470.4648,39.6028 L479.8368,39.6028 L479.8368,32.7348 L470.4648,32.7348 L470.4648,23.2348 L460.6438,23.2348 L460.6438,55.5218 C460.6548,57.2968 460.9338,58.8598 461.4798,60.1958 C462.0138,61.5228 462.7838,62.6358 463.7578,63.5228 C464.7418,64.4108 465.8868,65.0738 467.2018,65.5138 C468.5078,65.9508 469.9408,66.1768 471.4918,66.1768 C473.1078,66.1658 474.6908,65.9618 476.2208,65.5448 C477.7608,65.1278 479.1838,64.5508 480.4788,63.8018 L478.4238,56.5488 Z" id="Fill-7" fill="#174D73"></path>
                <polygon id="Fill-9" fill="#174D73" points="446.427 65.727 456.313 65.727 456.313 31.194 446.427 31.194"></polygon>
                <path d="M451.6211,15.8535 C450.5621,15.8645 449.6421,16.0995 448.8401,16.5695 C448.0481,17.0415 447.4271,17.6935 446.9771,18.5165 C446.5291,19.3405 446.3041,20.2925 446.2931,21.3735 C446.3041,22.4535 446.5291,23.4055 446.9771,24.2295 C447.4271,25.0535 448.0481,25.7065 448.8401,26.1765 C449.6421,26.6475 450.5621,26.8825 451.6211,26.8935 C452.6801,26.8825 453.6001,26.6475 454.4021,26.1765 C455.1941,25.7065 455.8141,25.0535 456.2641,24.2295 C456.7131,23.4055 456.9371,22.4535 456.9481,21.3735 C456.9371,20.2925 456.7131,19.3405 456.2641,18.5165 C455.8141,17.6935 455.1941,17.0415 454.4021,16.5695 C453.6001,16.0995 452.6801,15.8645 451.6211,15.8535" id="Fill-11" fill="#174D73"></path>
                <path d="M429.4346,30.8091 C426.7286,30.8301 424.3746,31.3761 422.3636,32.4251 C420.3416,33.4831 418.7266,35.0781 417.4966,37.2281 L417.4966,31.1941 L407.6116,31.1941 L407.6116,65.7261 L417.4966,65.7261 L417.4966,48.7171 C417.5066,47.0171 417.8166,45.4971 418.4486,44.1811 C419.0686,42.8651 419.9676,41.8171 421.1436,41.0581 C422.3206,40.2981 423.7326,39.8921 425.3906,39.8591 C426.8136,39.8591 428.0226,40.1481 429.0386,40.7151 C430.0556,41.2821 430.8366,42.0951 431.3716,43.1431 C431.9166,44.2031 432.1956,45.4541 432.1956,46.9201 L432.1956,65.7261 L442.0806,65.7261 L442.0806,44.0321 C442.0686,41.3251 441.5446,38.9821 440.5176,37.0031 C439.4806,35.0341 438.0256,33.5151 436.1426,32.4351 C434.2486,31.3661 432.0126,30.8201 429.4346,30.8091" id="Fill-12" fill="#174D73"></path>
                <path d="M385.4092,30.8735 C382.6282,30.8835 380.0922,31.3005 377.8242,32.1355 C375.5552,32.9585 373.6092,34.1465 371.9722,35.6975 C370.3362,37.2385 369.0732,39.0885 368.1962,41.2395 C367.3182,43.4005 366.8692,45.8075 366.8592,48.4605 C366.8692,51.1025 367.3182,53.4985 368.1962,55.6605 C369.0732,57.8215 370.3362,59.6715 371.9722,61.2335 C373.6092,62.7955 375.5552,63.9945 377.8242,64.8385 C380.0922,65.6725 382.6282,66.1015 385.4092,66.1125 C388.1802,66.1015 390.6932,65.6725 392.9512,64.8385 C395.2192,63.9945 397.1662,62.7955 398.7932,61.2335 C400.4302,59.6715 401.6802,57.8215 402.5572,55.6605 C403.4352,53.4985 403.8842,51.1025 403.8952,48.4605 C403.8842,45.8075 403.4352,43.4005 402.5572,41.2395 C401.6802,39.0885 400.4302,37.2385 398.7932,35.6975 C397.1662,34.1465 395.2192,32.9585 392.9512,32.1355 C390.6932,31.3005 388.1802,30.8835 385.4092,30.8735 M385.4092,39.0885 C387.1102,39.0995 388.6082,39.5065 389.8912,40.2985 C391.1752,41.0895 392.1802,42.1905 392.9082,43.6145 C393.6362,45.0375 394.0002,46.6955 394.0102,48.5885 C394.0002,50.4825 393.6362,52.1405 392.9082,53.5635 C392.1802,54.9855 391.1752,56.0875 389.8912,56.8795 C388.6082,57.6705 387.1102,58.0785 385.4092,58.0885 C383.6872,58.0785 382.1782,57.6705 380.8942,56.8795 C379.6102,56.0875 378.6162,54.9855 377.8992,53.5635 C377.1822,52.1405 376.8182,50.4825 376.8072,48.5885 C376.8182,46.6955 377.1822,45.0375 377.8992,43.6145 C378.6162,42.1905 379.6102,41.0895 380.8942,40.2985 C382.1782,39.5065 383.6872,39.0995 385.4092,39.0885" id="Fill-13" fill="#174D73"></path>
                <path d="M350.8906,30.8091 C347.9596,30.8301 345.4356,31.5041 343.3176,32.8091 C341.1996,34.1251 339.5736,36.1041 338.4396,38.7681 C337.8826,37.0881 337.0596,35.6661 335.9676,34.4781 C334.8756,33.2911 333.5606,32.3921 332.0086,31.7611 C330.4576,31.1291 328.7146,30.8091 326.7556,30.8091 C324.1456,30.8411 321.8576,31.3761 319.8776,32.4251 C317.9096,33.4731 316.3046,35.0451 315.0746,37.1631 L315.0746,31.1941 L305.1896,31.1941 L305.1896,65.7261 L315.0746,65.7261 L315.0746,48.6531 C315.0846,46.9741 315.3846,45.4761 316.0046,44.1601 C316.6156,42.8541 317.4926,41.8171 318.6366,41.0581 C319.7916,40.2881 321.1616,39.8921 322.7766,39.8591 C324.1356,39.8591 325.3016,40.1481 326.2866,40.7051 C327.2806,41.2611 328.0396,42.0631 328.5756,43.1221 C329.1106,44.1701 329.3886,45.4331 329.3886,46.9201 L329.3886,65.7261 L339.2086,65.7261 L339.2086,48.6531 C339.2196,46.9741 339.5186,45.4761 340.1396,44.1601 C340.7496,42.8541 341.6166,41.8171 342.7606,41.0581 C343.8956,40.2881 345.2646,39.8921 346.8466,39.8591 C348.2276,39.8591 349.4146,40.1481 350.4096,40.7051 C351.4046,41.2611 352.1636,42.0631 352.7096,43.1221 C353.2446,44.1701 353.5226,45.4331 353.5226,46.9201 L353.5226,65.7261 L363.3436,65.7261 L363.3436,44.0321 C363.3326,41.3251 362.8196,38.9821 361.8136,37.0031 C360.8076,35.0341 359.3736,33.5151 357.5126,32.4351 C355.6616,31.3661 353.4486,30.8201 350.8906,30.8091" id="Fill-14" fill="#174D73"></path>
                <path d="M302.1387,31.8994 L297.0027,31.8994 L286.2847,59.8224 L275.0507,31.8994 L269.7877,31.8994 L283.7817,65.4694 L282.3677,68.6154 C281.6837,70.1874 280.8177,71.3764 279.7687,72.1674 C278.7197,72.9694 277.5337,73.3654 276.2067,73.3654 C275.3727,73.3654 274.5697,73.2374 273.7887,72.9694 C272.9967,72.7124 272.2267,72.3054 271.4567,71.7604 L269.3387,75.9324 C270.3557,76.7674 271.4467,77.3874 272.6127,77.8054 C273.7787,78.2224 275.0617,78.4354 276.4627,78.4354 C278.7197,78.4354 280.7097,77.7614 282.4227,76.4354 C284.1447,75.1084 285.5347,73.1404 286.6047,70.5414 L302.1387,31.8994 Z" id="Fill-15" fill="#174D73"></path>
                <path d="M255.2944,31.7715 C252.8454,31.7825 250.5974,32.2005 248.5654,33.0235 C246.5224,33.8475 244.7574,35.0135 243.2594,36.5325 C241.7614,38.0405 240.6064,39.8375 239.7824,41.9245 C238.9694,44.0095 238.5514,46.3105 238.5414,48.8465 C238.5514,51.3705 238.9694,53.6815 239.7824,55.7675 C240.5954,57.8425 241.7404,59.6505 243.2374,61.1595 C244.7244,62.6775 246.4904,63.8435 248.5334,64.6675 C250.5774,65.4925 252.8224,65.9095 255.2944,65.9195 C258.2264,65.9095 260.8364,65.3835 263.1254,64.3685 C265.4144,63.3515 267.3194,61.9175 268.8384,60.0785 L265.9504,56.9975 C264.7514,58.4195 263.2644,59.5005 261.4884,60.2395 C259.7124,60.9885 257.7114,61.3625 255.4874,61.3625 C253.7324,61.3515 252.1174,61.0515 250.6624,60.4415 C249.1974,59.8425 247.9344,58.9875 246.8644,57.8755 C245.7944,56.7625 244.9604,55.4465 244.3724,53.9165 C243.7834,52.3865 243.4944,50.6965 243.4834,48.8465 C243.4944,46.9945 243.7834,45.3045 244.3724,43.7855 C244.9604,42.2665 245.7944,40.9515 246.8644,39.8485 C247.9344,38.7475 249.1974,37.9015 250.6624,37.3025 C252.1174,36.7035 253.7324,36.4035 255.4874,36.3935 C257.5414,36.4035 259.4134,36.7465 261.1034,37.4315 C262.7934,38.1155 264.2804,39.0785 265.5654,40.3095 L268.3254,36.7785 C266.7734,35.1625 264.9014,33.9225 262.6974,33.0445 C260.5044,32.1785 258.0334,31.7505 255.2944,31.7715" id="Fill-16" fill="#174D73"></path>
                <path d="M230.2539,65.7266 L235.1329,65.7266 L235.0679,43.3896 C235.0469,40.9616 234.5229,38.8746 233.5169,37.1316 C232.5119,35.3986 231.0349,34.0616 229.1099,33.1196 C227.1839,32.1886 224.8309,31.7186 222.0379,31.7076 C220.1339,31.7076 218.4009,31.8896 216.8599,32.2426 C215.3199,32.6066 213.8549,33.1196 212.4749,33.7936 C211.0839,34.4776 209.6709,35.3026 208.2379,36.2656 L210.3569,39.9236 C212.1109,38.6936 213.8759,37.7516 215.6409,37.0776 C217.4059,36.4136 219.2249,36.0826 221.0749,36.0726 C223.0659,36.0726 224.7339,36.3936 226.0709,37.0246 C227.4199,37.6446 228.4249,38.5436 229.1099,39.7206 C229.7839,40.8976 230.1259,42.3096 230.1259,43.9676 L230.1259,45.9576 L219.0219,45.9576 C216.3579,45.9896 214.0899,46.3956 212.2069,47.1876 C210.3239,47.9796 208.8789,49.0916 207.8849,50.5246 C206.8899,51.9586 206.3869,53.6706 206.3769,55.6496 C206.3869,57.1156 206.6549,58.4736 207.1899,59.7256 C207.7239,60.9776 208.4939,62.0686 209.5009,63.0096 C210.5059,63.9406 211.7039,64.6676 213.1159,65.1916 C214.5279,65.7056 216.1119,65.9736 217.8659,65.9846 C220.5729,65.9846 222.9799,65.5346 225.0769,64.6246 C227.1729,63.7266 228.8949,62.3576 230.2539,60.5276 L230.2539,65.7266 Z M218.8289,61.6196 C217.2349,61.6086 215.8659,61.3516 214.6999,60.8486 C213.5439,60.3456 212.6449,59.6296 212.0249,58.7086 C211.3939,57.7886 211.0729,56.7076 211.0619,55.4566 C211.0619,53.5956 211.7899,52.2266 213.2449,51.3276 C214.6889,50.4396 216.8389,49.9906 219.6629,50.0016 L230.1909,50.0016 L230.1909,54.0446 C229.7519,55.6176 229.0019,56.9646 227.9429,58.0886 C226.8839,59.2226 225.5789,60.0886 224.0279,60.6996 C222.4779,61.3086 220.7439,61.6086 218.8289,61.6196 Z" id="Fill-17" fill="#174D73"></path>
                <polygon id="Fill-18" fill="#174D73" points="192.9761 65.7266 206.2631 31.8996 201.1921 31.8996 190.4731 60.5276 179.6891 31.8996 174.3621 31.8996 187.7761 65.7266"></polygon>
                <polygon id="Fill-19" fill="#174D73" points="165.571 65.726 170.514 65.726 170.514 31.899 165.571 31.899"></polygon>
                <path d="M168.0107,18.7422 C167.3797,18.7422 166.8227,18.9012 166.3307,19.2022 C165.8497,19.4912 165.4537,19.9082 165.1757,20.4212 C164.8867,20.9462 164.7477,21.5342 164.7377,22.2082 C164.7477,22.8712 164.8867,23.4702 165.1757,23.9942 C165.4537,24.5082 165.8497,24.9142 166.3307,25.2142 C166.8227,25.5132 167.3797,25.6632 168.0107,25.6742 C168.6417,25.6632 169.1987,25.5132 169.6897,25.2142 C170.1817,24.9142 170.5677,24.5082 170.8447,23.9942 C171.1347,23.4702 171.2737,22.8712 171.2847,22.2082 C171.2737,21.5342 171.1347,20.9462 170.8447,20.4212 C170.5677,19.9082 170.1817,19.4912 169.6897,19.2022 C169.1987,18.9012 168.6417,18.7422 168.0107,18.7422" id="Fill-20" fill="#174D73"></path>
                <path d="M149.522,31.8994 L144.516,31.8994 L144.516,65.7264 L149.522,65.7264 L149.522,47.7544 C149.726,45.5184 150.325,43.5714 151.341,41.9134 C152.357,40.2544 153.727,38.9824 155.47,38.0844 C157.214,37.1844 159.269,36.7464 161.653,36.7784 L161.653,31.7074 C158.787,31.7504 156.337,32.4244 154.283,33.7304 C152.24,35.0344 150.656,36.9284 149.522,39.4104 L149.522,31.8994 Z" id="Fill-21" fill="#174D73"></path>
                <path d="M124.7471,31.7075 C121.7731,31.7185 119.1841,32.3815 116.9591,33.6765 C114.7341,34.9815 112.9911,36.8215 111.7181,39.2175 L111.7181,31.8995 L106.7111,31.8995 L106.7111,78.1785 L111.7181,78.1785 L111.7181,58.4735 C112.9801,60.8375 114.7341,62.6565 116.9701,63.9515 C119.2061,65.2465 121.8491,65.8985 124.8751,65.9195 C127.2721,65.9095 129.4651,65.4925 131.4341,64.6675 C133.4021,63.8435 135.0931,62.6775 136.5151,61.1695 C137.9481,59.6615 139.0401,57.8645 139.8101,55.7895 C140.5911,53.7125 140.9761,51.4235 140.9871,48.9095 C140.9761,46.3635 140.5801,44.0425 139.8001,41.9455 C139.0071,39.8485 137.8951,38.0305 136.4521,36.4995 C135.0181,34.9815 133.3061,33.8045 131.3161,32.9705 C129.3371,32.1355 127.1541,31.7185 124.7471,31.7075 M123.8491,61.3625 C122.0621,61.3515 120.4251,61.0405 118.9491,60.4315 C117.4731,59.8225 116.1891,58.9565 115.1081,57.8425 C114.0291,56.7185 113.1941,55.3935 112.6161,53.8635 C112.0281,52.3325 111.7281,50.6325 111.7181,48.7815 C111.7281,46.9415 112.0281,45.2615 112.6161,43.7315 C113.1941,42.2025 114.0291,40.8655 115.1081,39.7415 C116.1891,38.6185 117.4731,37.7515 118.9491,37.1315 C120.4251,36.5215 122.0621,36.2115 123.8491,36.2005 C125.6241,36.2115 127.2401,36.5215 128.7161,37.1425 C130.1831,37.7625 131.4551,38.6405 132.5361,39.7735 C133.6051,40.8975 134.4401,42.2245 135.0281,43.7535 C135.6171,45.2835 135.9051,46.9625 135.9161,48.7815 C135.9051,50.6215 135.6171,52.3005 135.0281,53.8305 C134.4401,55.3605 133.6051,56.6875 132.5361,57.8215 C131.4551,58.9445 130.1831,59.8115 128.7161,60.4205 C127.2401,61.0405 125.6241,61.3515 123.8491,61.3625" id="Fill-22" fill="#174D73"></path>
                <path d="M416.5684,78.6035 C415.3494,78.6085 414.2824,78.8475 413.3654,79.3255 C412.4494,79.8075 411.7024,80.4995 411.1274,81.4125 L411.1274,72.5775 L407.7624,72.5775 L407.7624,94.2855 L411.1274,94.2855 L411.1274,91.5935 C411.6974,92.5045 412.4494,93.1985 413.3754,93.6765 C414.2974,94.1585 415.3844,94.3975 416.6284,94.4025 C417.7444,94.3975 418.7544,94.2075 419.6554,93.8325 C420.5574,93.4565 421.3334,92.9195 421.9814,92.2275 C422.6304,91.5305 423.1274,90.7075 423.4724,89.7495 C423.8204,88.7905 423.9954,87.7275 424.0004,86.5615 C423.9954,85.3715 423.8144,84.2895 423.4594,83.3185 C423.1034,82.3435 422.6004,81.5095 421.9424,80.8025 C421.2844,80.1005 420.5044,79.5595 419.5914,79.1785 C418.6844,78.7985 417.6754,78.6085 416.5684,78.6035 Z M415.8674,91.5355 C414.9344,91.5305 414.1114,91.3105 413.4044,90.8865 C412.6924,90.4575 412.1364,89.8635 411.7374,89.1025 C411.3364,88.3415 411.1314,87.4545 411.1274,86.4445 C411.1314,85.4595 411.3364,84.5915 411.7374,83.8405 C412.1364,83.0845 412.6924,82.4955 413.4044,82.0655 C414.1114,81.6365 414.9344,81.4165 415.8674,81.4125 C416.5644,81.4165 417.2034,81.5405 417.7784,81.7925 C418.3584,82.0415 418.8554,82.3925 419.2794,82.8405 C419.6994,83.2945 420.0264,83.8265 420.2554,84.4355 C420.4894,85.0445 420.6054,85.7175 420.6054,86.4445 C420.6014,87.4485 420.3964,88.3275 419.9964,89.0915 C419.5974,89.8535 419.0414,90.4485 418.3294,90.8765 C417.6224,91.3105 416.8034,91.5255 415.8674,91.5355 Z M440.1204,78.7205 L436.7564,78.7205 L432.4254,90.5115 L427.7744,78.7205 L424.2934,78.7205 L430.7284,94.0515 L430.2034,95.2215 C429.9394,95.8065 429.6024,96.2415 429.2034,96.5235 C428.8024,96.8065 428.3454,96.9475 427.8324,96.9475 C427.4864,96.9475 427.1544,96.8895 426.8334,96.7675 C426.5154,96.6405 426.1744,96.4515 425.8134,96.1865 L424.3804,98.7915 C424.9174,99.2445 425.4774,99.5755 426.0574,99.7905 C426.6424,100.0055 427.2824,100.1075 427.9794,100.1075 C429.1544,100.1075 430.1694,99.7995 431.0264,99.1855 C431.8804,98.5715 432.5524,97.6505 433.0414,96.4205 L440.1204,78.7205 Z M456.6794,78.6035 C455.4704,78.6085 454.3634,78.7985 453.3744,79.1745 C452.3794,79.5545 451.5204,80.0915 450.8034,80.7885 C450.0834,81.4855 449.5264,82.3145 449.1364,83.2795 C448.7464,84.2455 448.5514,85.3225 448.5464,86.5025 C448.5514,87.6775 448.7464,88.7465 449.1364,89.7105 C449.5264,90.6765 450.0834,91.5105 450.8034,92.2075 C451.5204,92.9055 452.3794,93.4475 453.3744,93.8275 C454.3634,94.2075 455.4704,94.3975 456.6794,94.4025 C457.8844,94.3975 458.9814,94.2075 459.9714,93.8275 C460.9614,93.4475 461.8144,92.9055 462.5304,92.2075 C463.2484,91.5105 463.8034,90.6765 464.1934,89.7105 C464.5844,88.7465 464.7794,87.6775 464.7844,86.5025 C464.7794,85.3225 464.5844,84.2455 464.1934,83.2795 C463.8034,82.3145 463.2484,81.4855 462.5304,80.7885 C461.8144,80.0915 460.9614,79.5545 459.9714,79.1745 C458.9814,78.7985 457.8844,78.6085 456.6794,78.6035 Z M456.6794,81.4995 C457.6164,81.5045 458.4354,81.7195 459.1414,82.1385 C459.8544,82.5635 460.4104,83.1485 460.8094,83.8995 C461.2104,84.6545 461.4144,85.5335 461.4194,86.5325 C461.4144,87.5415 461.2104,88.4285 460.8094,89.1845 C460.4104,89.9405 459.8544,90.5315 459.1414,90.9505 C458.4354,91.3745 457.6164,91.5885 456.6794,91.5935 C455.7394,91.5885 454.9104,91.3745 454.1934,90.9505 C453.4804,90.5315 452.9244,89.9405 452.5254,89.1845 C452.1214,88.4285 451.9164,87.5415 451.9114,86.5325 C451.9164,85.5335 452.1214,84.6545 452.5254,83.8995 C452.9244,83.1485 453.4804,82.5635 454.1934,82.1385 C454.9104,81.7195 455.7394,81.5045 456.6794,81.4995 Z M472.9474,78.5745 C472.1964,78.5745 471.4734,78.6575 470.7914,78.8325 C470.1084,79.0085 469.4994,79.2775 468.9634,79.6425 C468.4224,80.0075 468.0024,80.4705 467.6904,81.0415 C467.3794,81.6135 467.2164,82.2905 467.2134,83.0805 C467.2164,83.8745 467.3634,84.5385 467.6564,85.0695 C467.9484,85.6015 468.3344,86.0355 468.8164,86.3715 C469.2984,86.7075 469.8354,86.9805 470.4114,87.1955 C470.9914,87.4105 471.5714,87.6005 472.1514,87.7665 C472.7324,87.9315 473.2684,88.1065 473.7514,88.2975 C474.2394,88.4885 474.6294,88.7205 474.9214,89.0045 C475.2144,89.2875 475.3654,89.6535 475.3754,90.1015 C475.3704,90.4925 475.2574,90.8095 475.0344,91.0525 C474.8084,91.3015 474.5064,91.4815 474.1274,91.5985 C473.7464,91.7105 473.3124,91.7695 472.8294,91.7695 C472.2544,91.7695 471.6554,91.6915 471.0254,91.5355 C470.3964,91.3785 469.7824,91.1605 469.1924,90.8725 C468.6024,90.5835 468.0804,90.2385 467.6224,89.8375 L466.4224,92.2375 C466.9444,92.7055 467.5484,93.1005 468.2264,93.4215 C468.9084,93.7445 469.6314,93.9875 470.3914,94.1535 C471.1524,94.3195 471.9184,94.4025 472.6824,94.4025 C473.4734,94.4025 474.2244,94.3095 474.9354,94.1285 C475.6484,93.9435 476.2874,93.6665 476.8414,93.2865 C477.3984,92.9105 477.8384,92.4275 478.1594,91.8465 C478.4804,91.2675 478.6464,90.5745 478.6524,89.7805 C478.6464,88.9805 478.5004,88.3075 478.2034,87.7665 C477.9104,87.2245 477.5154,86.7815 477.0274,86.4305 C476.5404,86.0825 476.0044,85.7965 475.4194,85.5715 C474.8284,85.3475 474.2444,85.1525 473.6584,84.9825 C473.0734,84.8165 472.5324,84.6405 472.0404,84.4645 C471.5524,84.2845 471.1574,84.0655 470.8594,83.8065 C470.5624,83.5525 470.4114,83.2215 470.4014,82.8165 C470.4064,82.4465 470.5044,82.1485 470.6994,81.9195 C470.8934,81.6905 471.1674,81.5245 471.5074,81.4215 C471.8484,81.3145 472.2394,81.2655 472.6824,81.2655 C473.1464,81.2655 473.6344,81.3255 474.1514,81.4315 C474.6634,81.5435 475.1794,81.7005 475.6924,81.9055 C476.2094,82.1095 476.6964,82.3585 477.1604,82.6415 L478.3884,80.1545 C477.9154,79.8235 477.3834,79.5355 476.7894,79.3005 C476.1944,79.0665 475.5704,78.8865 474.9174,78.7645 C474.2624,78.6375 473.6054,78.5745 472.9474,78.5745 Z M491.3794,94.2855 L494.6844,94.2855 L494.6554,84.0755 C494.6404,82.9295 494.3924,81.9495 493.9044,81.1345 C493.4124,80.3205 492.7054,79.6965 491.7734,79.2615 C490.8384,78.8285 489.7064,78.6085 488.3654,78.6035 C487.6334,78.6035 486.9704,78.6475 486.3764,78.7305 C485.7854,78.8135 485.2304,78.9355 484.7174,79.1015 C484.2064,79.2675 483.7044,79.4715 483.2114,79.7155 C482.7184,79.9585 482.2014,80.2425 481.6654,80.5635 L483.0404,82.9045 C483.8154,82.3775 484.5914,81.9835 485.3614,81.7195 C486.1274,81.4575 486.8874,81.3255 487.6334,81.3255 C488.8624,81.3295 489.7894,81.6075 490.4134,82.1535 C491.0374,82.6995 491.3494,83.4645 491.3494,84.4555 L491.3494,84.9225 L486.6384,84.9225 C485.3854,84.9375 484.3234,85.1385 483.4504,85.5175 C482.5764,85.9035 481.9094,86.4395 481.4504,87.1365 C480.9924,87.8305 480.7634,88.6535 480.7574,89.6045 C480.7634,90.2965 480.8894,90.9355 481.1384,91.5215 C481.3924,92.1055 481.7574,92.6135 482.2304,93.0465 C482.7094,93.4855 483.2844,93.8225 483.9574,94.0655 C484.6304,94.3055 485.3854,94.4265 486.2294,94.4315 C487.3604,94.4315 488.3604,94.2605 489.2334,93.9245 C490.1004,93.5835 490.8174,93.0715 491.3794,92.3835 L491.3794,94.2855 Z M486.9314,91.7695 C486.3024,91.7695 485.7654,91.6715 485.3174,91.4815 C484.8694,91.2915 484.5224,91.0285 484.2844,90.6815 C484.0404,90.3355 483.9184,89.9305 483.9184,89.4575 C483.9144,88.7165 484.1754,88.1855 484.7034,87.8595 C485.2304,87.5325 486.0444,87.3755 487.1364,87.3805 L491.3494,87.3805 L491.3494,88.8145 C491.2864,89.3845 491.0574,89.8925 490.6624,90.3355 C490.2664,90.7795 489.7454,91.1245 489.1064,91.3785 C488.4634,91.6325 487.7364,91.7645 486.9314,91.7695 Z M507.7744,78.6035 C506.4534,78.5995 505.3074,78.8425 504.3364,79.3405 C503.3664,79.8415 502.6004,80.6265 502.0404,81.7055 L502.0404,78.7205 L498.6754,78.7205 L498.6754,94.2855 L502.0404,94.2855 L502.0404,86.0055 C502.1184,85.1915 502.3474,84.4645 502.7174,83.8315 C503.0894,83.2025 503.5904,82.6995 504.2194,82.3335 C504.8534,81.9685 505.5994,81.7775 506.4584,81.7635 C507.2434,81.7675 507.9104,81.9195 508.4714,82.2215 C509.0274,82.5245 509.4584,82.9585 509.7544,83.5185 C510.0504,84.0785 510.2034,84.7535 510.2034,85.5375 L510.2034,94.2855 L513.5674,94.2855 L513.5674,84.6015 C513.5624,83.3575 513.3334,82.2905 512.8704,81.3925 C512.4124,80.4995 511.7544,79.8135 510.8894,79.3315 C510.0274,78.8525 508.9884,78.6075 507.7744,78.6035 Z M524.7424,78.6035 C523.5334,78.6085 522.4264,78.7985 521.4364,79.1745 C520.4424,79.5545 519.5844,80.0915 518.8674,80.7885 C518.1464,81.4855 517.5894,82.3155 517.1994,83.2795 C516.8094,84.2445 516.6144,85.3225 516.6094,86.5025 C516.6144,87.6775 516.8094,88.7465 517.1994,89.7105 C517.5894,90.6765 518.1464,91.5105 518.8674,92.2075 C519.5844,92.9055 520.4424,93.4475 521.4364,93.8275 C522.4264,94.2075 523.5334,94.3975 524.7424,94.4025 C525.9474,94.3975 527.0464,94.2075 528.0344,93.8275 C529.0234,93.4475 529.8794,92.9055 530.5934,92.2075 C531.3104,91.5115 531.8684,90.6765 532.2574,89.7105 C532.6464,88.7475 532.8424,87.6775 532.8474,86.5025 C532.8424,85.3225 532.6464,84.2445 532.2574,83.2795 C531.8684,82.3155 531.3104,81.4845 530.5934,80.7885 C529.8794,80.0915 529.0244,79.5545 528.0344,79.1745 C527.0444,78.7985 525.9474,78.6085 524.7424,78.6035 Z M524.7424,81.4995 C525.6794,81.5045 526.4994,81.7195 527.2054,82.1385 C527.9184,82.5635 528.4734,83.1485 528.8734,83.8995 C529.2734,84.6545 529.4774,85.5335 529.4824,86.5325 C529.4774,87.5415 529.2724,88.4295 528.8734,89.1845 C528.4734,89.9395 527.9184,90.5315 527.2054,90.9505 C526.4994,91.3745 525.6794,91.5885 524.7424,91.5935 C523.8014,91.5885 522.9734,91.3745 522.2564,90.9505 C521.5444,90.5315 520.9884,89.9405 520.5894,89.1845 C520.1834,88.4285 519.9784,87.5415 519.9744,86.5325 C519.9784,85.5335 520.1834,84.6545 520.5894,83.8995 C520.9884,83.1485 521.5444,82.5635 522.2564,82.1385 C522.9734,81.7195 523.8014,81.5045 524.7424,81.4995 Z" id="Fill-23" fill="#00C7FF"></path>
            </g>
        </g>
    </g>
</svg>